<?xml version="1.0" encoding="UTF-8" standalone="no"?>
<!-- Created with Inkscape (http://www.inkscape.org/) -->

<svg
   width="210mm"
   height="297mm"
   viewBox="0 0 210 297"
   version="1.1"
   id="svg1"
   xml:space="preserve"
   inkscape:version="1.3.2 (091e20e, 2023-11-25)"
   sodipodi:docname="logo.svg"
   xmlns:inkscape="http://www.inkscape.org/namespaces/inkscape"
   xmlns:sodipodi="http://sodipodi.sourceforge.net/DTD/sodipodi-0.dtd"
   xmlns="http://www.w3.org/2000/svg"
   xmlns:svg="http://www.w3.org/2000/svg"
   xmlns:vectornator="http://vectornator.io"><sodipodi:namedview
     id="namedview1"
     pagecolor="#ffffff"
     bordercolor="#000000"
     borderopacity="0.25"
     inkscape:showpageshadow="2"
     inkscape:pageopacity="0.0"
     inkscape:pagecheckerboard="0"
     inkscape:deskcolor="#d1d1d1"
     inkscape:document-units="mm"
     inkscape:zoom="1.5266107"
     inkscape:cx="244.3321"
     inkscape:cy="555.47887"
     inkscape:window-width="1920"
     inkscape:window-height="939"
     inkscape:window-x="1920"
     inkscape:window-y="128"
     inkscape:window-maximized="0"
     inkscape:current-layer="layer1" /><defs
     id="defs1" /><g
     inkscape:label="Layer 1"
     inkscape:groupmode="layer"
     id="layer1"><g
       style="clip-rule:evenodd;fill:#000000;fill-rule:nonzero;stroke-linecap:round;stroke-linejoin:round;stroke-miterlimit:10"
       id="g1"
       transform="matrix(0.01079246,0,0,0.01079246,53.004639,139.77996)"
       inkscape:export-filename="logo.svg"
       inkscape:export-xdpi="96"
       inkscape:export-ydpi="96"><g
         id="Layer-1"
         vectornator:layerName="Layer 1"
         style="fill:#000000">
<path
   d="m 138.185,1346.97 c 0,-27.61 22.386,-50 50,-50 h 226.208 c 27.614,0 50,22.39 50,50 v 39.8 c 0,27.62 -22.386,50 -50,50 H 188.185 c -27.614,0 -50,-22.38 -50,-50 z"
   fill="#1072bd"
   fill-rule="nonzero"
   opacity="1"
   stroke="#ffffff"
   stroke-linecap="butt"
   stroke-linejoin="round"
   stroke-width="1"
   vectornator:layerName="Rectangle 1"
   id="path1"
   style="fill:#000000" />
<path
   d="m 138.185,1172.22 c 0,-27.62 22.386,-50 50,-50 h 389.312 c 27.615,0 50,22.38 50,50 v 39.8 c 0,27.61 -22.385,50 -50,50 H 188.185 c -27.614,0 -50,-22.39 -50,-50 z"
   fill="#1072bd"
   fill-rule="nonzero"
   opacity="1"
   stroke="#ffffff"
   stroke-linecap="butt"
   stroke-linejoin="round"
   stroke-width="1"
   vectornator:layerName="Rectangle 4"
   id="path2"
   style="fill:#000000" />
<path
   d="m 301.289,997.461 c 0,-27.614 22.386,-50 50,-50 h 226.208 c 27.615,0 50,22.386 50,50 v 39.799 c 0,27.62 -22.385,50 -50,50 H 351.289 c -27.614,0 -50,-22.38 -50,-50 z"
   fill="#1072bd"
   fill-rule="nonzero"
   opacity="1"
   stroke="#ffffff"
   stroke-linecap="butt"
   stroke-linejoin="round"
   stroke-width="1"
   vectornator:layerName="Rectangle 5"
   id="path3"
   style="fill:#000000" />
</g></g><path
       style="font-weight:bold;font-size:27.933px;line-height:0.9;font-family:'Exo 2';-inkscape-font-specification:'Exo 2 Bold';fill:#070707;stroke-width:0.554117;stroke-linecap:round;stroke-linejoin:round;stroke-dasharray:1.92054, 1.92054;stroke-dashoffset:1.48843"
       d="m 62.876316,150 q 0.376919,0 0.820353,0.0443 0.443434,0.037 0.864697,0.1552 l -0.07391,0.75384 q -0.325185,-0.0148 -0.761229,-0.0222 -0.436043,-0.007 -0.857306,-0.007 -0.206935,0 -0.354747,0.0148 -0.140421,0.0148 -0.229107,0.0591 -0.08869,0.0444 -0.12564,0.14782 -0.03695,0.0961 -0.03695,0.26606 0,0.25867 0.118249,0.37692 0.12564,0.11824 0.421263,0.21432 l 0.982945,0.31779 q 0.613417,0.20694 0.849916,0.56169 0.236498,0.35475 0.236498,0.93121 0,0.43604 -0.103468,0.72428 -0.103468,0.28823 -0.325185,0.45082 -0.221717,0.16259 -0.583855,0.22911 -0.362138,0.0739 -0.886868,0.0739 -0.25128,0 -0.716885,-0.037 -0.465606,-0.0296 -1.056852,-0.16259 l 0.06652,-0.79818 q 0.443434,0.007 0.761229,0.0222 0.317794,0.007 0.546902,0.0148 0.229108,0 0.399091,0 0.303013,0 0.465605,-0.037 0.169984,-0.0369 0.236499,-0.14781 0.06651,-0.11086 0.06651,-0.3178 0,-0.18476 -0.05173,-0.28823 -0.04434,-0.10347 -0.155202,-0.16998 -0.110859,-0.0665 -0.288232,-0.11825 l -1.03468,-0.35475 q -0.591245,-0.20694 -0.835134,-0.55429 -0.236498,-0.34736 -0.236498,-0.92382 0,-0.43605 0.103468,-0.71689 0.110858,-0.28084 0.332575,-0.42865 0.221717,-0.1552 0.576465,-0.21433 Q 62.373757,150 62.876316,150 Z m 3.650945,1.54463 v 2.40193 q 0,0.22911 0.09608,0.32519 0.103467,0.0961 0.325184,0.0961 0.229107,0 0.450824,-0.0813 0.229107,-0.0887 0.569074,-0.27345 l 0.08129,0.59863 q -0.39909,0.33997 -0.783398,0.50995 -0.376921,0.16999 -0.790791,0.16999 -1.03468,0 -1.03468,-1.01251 v -2.73451 z m 2.416716,0 v 3.65094 H 68.08667 l -0.125639,-0.71689 -0.11086,-0.10346 v -2.83059 z m 2.143267,-0.0961 q 0.391701,0 0.746447,0.11086 0.354749,0.11086 0.6282,0.36214 l -0.07391,0.49516 q -0.243889,-0.0739 -0.450824,-0.12564 -0.199548,-0.0591 -0.465606,-0.0591 -0.22911,0 -0.369528,0.0813 -0.140422,0.0813 -0.206938,0.31779 -0.06651,0.2365 -0.06651,0.70211 0,0.43604 0.05912,0.66515 0.06652,0.22171 0.199545,0.3104 0.140422,0.0813 0.354747,0.0813 0.192155,0 0.332576,-0.037 0.140422,-0.0443 0.280841,-0.12564 0.140422,-0.0887 0.325187,-0.21432 l 0.07391,0.53951 q -0.221717,0.3104 -0.576466,0.52473 -0.354746,0.20694 -0.872086,0.20694 -0.702105,0 -1.005118,-0.50256 -0.295623,-0.50256 -0.295623,-1.44116 0,-0.73167 0.155201,-1.13815 0.155204,-0.41387 0.458217,-0.58386 0.310402,-0.16998 0.768618,-0.16998 z m 2.268905,-1.42638 v 5.1734 h -0.864697 l -0.110857,-0.67254 -0.11825,-0.0813 v -2.39454 l 0.04434,-0.10347 q -0.02217,-0.22172 -0.03695,-0.45083 -0.0074,-0.2365 -0.0074,-0.48038 v -0.99034 z m 2.631042,1.42638 q 0.687324,0 1.101196,0.19216 0.413872,0.18476 0.591245,0.60602 0.184766,0.42127 0.184766,1.13076 0,0.69471 -0.184766,1.11598 -0.177373,0.42126 -0.591245,0.60602 -0.413872,0.18477 -1.101196,0.18477 -0.67993,0 -1.093803,-0.18477 -0.413872,-0.18476 -0.598635,-0.60602 -0.184765,-0.42127 -0.184765,-1.11598 0,-0.70949 0.184765,-1.13076 0.184763,-0.42126 0.598635,-0.60602 0.413873,-0.19216 1.093803,-0.19216 z m 0,0.79079 q -0.28084,0 -0.443434,0.0961 -0.162591,0.0961 -0.229107,0.33996 -0.06651,0.24389 -0.06651,0.70211 0,0.44343 0.06651,0.68732 0.06652,0.24389 0.229107,0.33997 0.162594,0.0887 0.443434,0.0887 0.288233,0 0.450827,-0.0887 0.162591,-0.0961 0.221717,-0.33997 0.06651,-0.24389 0.06651,-0.68732 0,-0.45822 -0.06651,-0.70211 -0.05913,-0.24388 -0.221717,-0.33996 -0.162594,-0.0961 -0.450827,-0.0961 z m 6.156344,-0.69471 -0.953381,1.27118 q -0.06652,0.10346 -0.169984,0.19954 -0.10347,0.0961 -0.169983,0.14042 v 0.0222 q 0.06651,0.0443 0.169983,0.1626 0.103468,0.11085 0.169984,0.2291 l 1.07902,1.62593 h -1.219442 l -1.249007,-2.05458 1.123368,-1.59636 z m -2.438887,-1.52246 0.0074,2.13588 q 0,0.25866 -0.02956,0.50255 -0.02956,0.24389 -0.08868,0.48039 0.05173,0.22172 0.0813,0.46561 0.02956,0.24389 0.02956,0.44343 v 1.14554 h -1.086413 v -5.1734 z m 0.50995,2.80842 v 0.66515 h -0.849917 v -0.66515 z m 3.599206,-1.28596 v 2.40193 q 0,0.22911 0.09608,0.32519 0.103467,0.0961 0.325184,0.0961 0.229107,0 0.450824,-0.0813 0.22911,-0.0887 0.569076,-0.27345 l 0.0813,0.59863 q -0.399091,0.33997 -0.783401,0.50995 -0.376918,0.16999 -0.790791,0.16999 -1.034679,0 -1.034679,-1.01251 v -2.73451 z m 2.416716,0 v 3.65094 h -0.857307 l -0.125639,-0.71689 -0.110857,-0.10346 v -2.83059 z"
       id="text1"
       aria-label="Sudoku" /></g></svg>
